<svg id="Слой_1" data-name="Слой 1" xmlns="http://www.w3.org/2000/svg" viewBox="0 0 10405.38 6166.66"><defs><style>.cls-1{fill:#45a2d1;}</style></defs><title>Монтажная область 4</title><path class="cls-1" d="M6894.6,1353.66h786.21c-20.28,138.69-43.06,289.61-62.58,418.91q-153.1,1014.2-306.65,2028.34c-30.88,204.32-60.4,408.85-92.62,613-17.37,110,11.17,166.33,99.46,183.67,126.76,24.9,213.54-23.09,230.14-133.09,39.54-262,75.63-524.52,114.07-786.69q93.9-640.39,189.08-1280.6,72.79-490.8,146.56-981.46c3.09-20.6,7.84-40.95,11.94-62h735.53c-23.07,157.94-45.17,311-67.81,463.95q-139.27,941.28-278.74,1882.53c-38.47,260.3-67.14,522.44-116.48,780.65C8220,4809,8010.41,5015.67,7695.65,5112.22c-257.24,78.91-520,79.09-780.16,12.56-349.18-89.28-516.77-363.05-459.94-719.94,65-407.87,119.94-817.32,179.65-1226Q6737,2481.89,6839.39,1785.06C6859.41,1648,6875.37,1489.37,6894.6,1353.66Z"/><polygon class="cls-1" points="752.03 0 1526.85 0 1155.39 2705.03 1645.35 1369.61 2370.04 1367.33 1693.21 3071.93 1923.38 4972.52 1118.93 4972.52 1036.89 3463.9 783.94 4972.52 0 4972.52 752.03 0"/><polygon class="cls-1" points="2695.35 1353.66 3510.62 1353.66 3611.46 2707.31 3838.78 1353.66 4512.19 1353.66 3990.89 4948.02 3184.17 4939.48 3083.33 3361.92 2823.53 4972.52 2139.87 4972.52 2695.35 1353.66"/><path class="cls-1" d="M5336,1353.66,4204.54,4972.52H5001L5182.18,4225l259.79,6.84-30.76,740.64h728.1l153.82-3618.87ZM5571.87,3685H5274.47L5701.76,2071.5Z"/><polygon class="cls-1" points="9092.74 1316.06 10405.38 1316.06 10330.17 1893.75 9837.94 1893.75 9749.06 2683.38 10217.37 2683.38 10138.75 3254.24 9649.93 3254.24 9226.06 6166.66 8361.22 6166.66 9092.74 1316.06"/></svg>